PathFileType	4	(X/Y/Z)	/Users/itak/Documents/Research/Walk-IL/dataset/trc/00151_00007.trc
DataRate	CameraRate	NumFrames	NumMarkers	Units	OrigDataRate	OrigDataStartFrame	OrigNumFrames
100.000000	100.000000	4	53	mm	100.000000	408	544
Frame#	Time	RPSI			LPSI			L3			STRN			T10			C7			CLAV			RBAK			LBAK			LSHO			LUPA			LAEL			LAOL			LWTS			LWPS			LFRA			LIFD			LHPS			LHTS			RSHO			RUPA			RAEL			RAOL			RWTS			RWPS			RFRA			RIFD			RHTS			RHPS			RBHD			LFHD			RFHD			LBHD			LHIP			RHIP			RASI			LASI			LKNE			LTHI			LANK			LTIP			LTOE			LMT1			LMT5			LHEE			RKNE			RTHI			RANK			RTIP			RTOE			RMT1			RMT5			RHEE			
		X1	Y1	Z1	X2	Y2	Z2	X3	Y3	Z3	X4	Y4	Z4	X5	Y5	Z5	X6	Y6	Z6	X7	Y7	Z7	X8	Y8	Z8	X9	Y9	Z9	X10	Y10	Z10	X11	Y11	Z11	X12	Y12	Z12	X13	Y13	Z13	X14	Y14	Z14	X15	Y15	Z15	X16	Y16	Z16	X17	Y17	Z17	X18	Y18	Z18	X19	Y19	Z19	X20	Y20	Z20	X21	Y21	Z21	X22	Y22	Z22	X23	Y23	Z23	X24	Y24	Z24	X25	Y25	Z25	X26	Y26	Z26	X27	Y27	Z27	X28	Y28	Z28	X29	Y29	Z29	X30	Y30	Z30	X31	Y31	Z31	X32	Y32	Z32	X33	Y33	Z33	X34	Y34	Z34	X35	Y35	Z35	X36	Y36	Z36	X37	Y37	Z37	X38	Y38	Z38	X39	Y39	Z39	X40	Y40	Z40	X41	Y41	Z41	X42	Y42	Z42	X43	Y43	Z43	X44	Y44	Z44	X45	Y45	Z45	X46	Y46	Z46	X47	Y47	Z47	X48	Y48	Z48	X49	Y49	Z49	X50	Y50	Z50	X51	Y51	Z51	X52	Y52	Z52	X53	Y53	Z53	

409	4.08	388.3169250488281	1103.679443359375	124.2719497680664	522.5005493164062	1116.508422851562	123.8638763427734	455.0803833007812	1142.41162109375	113.8520278930664	455.5522766113281	1352.803344726562	323.9776611328125	437.7045288085938	1288.399780273438	79.20063018798828	449.4430541992188	1582.557861328125	86.28501129150391	458.0616149902344	1484.938842773438	277.4527282714844	359.6394958496094	1395.067260742188	50.70570373535156	550.1969604492188	1562.800170898438	72.08218383789062	626.0611572265625	1555.455200195312	152.5502319335938	698.0698852539062	1426.837524414062	123.1729354858398	731.176025390625	1210.766235351562	123.9635314941406	662.6152954101562	1196.390502929688	70.10424041748047	724.6018676757812	945.3661499023438	215.0293884277344	734.5150756835938	926.08349609375	128.4231414794922	745.1747436523438	1094.635864257812	132.5884246826172	713.7144775390625	751.505859375	218.1290740966797	743.9409790039062	849.7593994140625	151.4275970458984	741.5281372070312	856.2562255859375	220.6199798583984	274.9165344238281	1567.714477539062	158.1640472412109	209.1887512207031	1493.5283203125	150.6967926025391	189.6945190429688	1198.672485351562	160.1393890380859	285.5474853515625	1196.781616210938	146.5246429443359	216.5701141357422	962.9935302734375	316.6379089355469	177.1531524658203	943.6219482421875	244.6056365966797	176.2048492431641	1127.032348632812	189.3888092041016	236.6275634765625	768.7877807617188	344.8997802734375	213.1817321777344	855.22705078125	349.2055358886719	177.87060546875	845.169189453125	285.8912048339844	372.4029846191406	1761.80908203125	133.1181488037109	528.8594360351562	1827.346923828125	275.5453796386719	401.4546508789062	1832.004150390625	296.4898681640625	505.6714172363281	1762.55419921875	105.2511672973633	646.2005615234375	1050.273193359375	232.536865234375	278.5576477050781	1004.534606933594	254.7318115234375	326.1524353027344	1084.592163085938	333.8339538574219	590.5343017578125	1104.192749023438	326.2608032226562	633.5584106445312	548.3099365234375	346.8635559082031	656.7901611328125	687.5804443359375	290.6563415527344	632.8931274414062	31.38330078125	345.1982421875	661.60498046875	288.9823913574219	305.6227416992188	568.4192504882812	42.24694061279297	572.0653076171875	537.9473876953125	46.70218658447266	492.2613830566406	655.4526977539062	33.62895584106445	469.70458984375	573.6202392578125	34.13132095336914	274.4727172851562	324.4416198730469	507.6375122070312	276.2172546386719	297.3328247070312	789.7648315429688	284.6485290527344	271.3827514648438	153.6011810302734	-125.7882308959961	297.217529296875	405.1882934570312	182.8440246582031	383.7059936523438	36.16484832763672	10.18882942199707	412.4209594726562	61.32128524780273	-48.49581146240234	294.6859436035156	45.06888580322266	-52.37445068359375	302.8008728027344	212.0091552734375	-161.3878631591797	
410	4.09	391.9240417480469	1103.976196289062	130.4312438964844	526.10791015625	1117.202514648438	130.7973937988281	458.6145324707031	1142.939208984375	120.6019058227539	457.4406433105469	1353.506591796875	330.4186096191406	442.3919982910156	1289.383422851562	85.16006469726562	453.8168334960938	1583.514404296875	93.07904052734375	460.319580078125	1485.704833984375	284.1932678222656	364.5371398925781	1396.022338867188	56.18399810791016	554.7744140625	1563.795654296875	80.08153533935547	629.5879516601562	1556.413696289062	161.4831848144531	702.4033813476562	1427.994506835938	133.5824890136719	736.454345703125	1212.01904296875	136.1127319335938	669.0530395507812	1197.151977539062	80.90139770507812	729.181396484375	947.1386108398438	228.4789276123047	740.9129028320312	927.4164428710938	142.1700592041016	750.8197631835938	1096.146606445312	145.4795379638672	719.2171630859375	753.2838134765625	232.4707489013672	750.2677001953125	851.2772827148438	165.81494140625	746.4193725585938	858.1509399414062	234.9144287109375	278.4886474609375	1568.453857421875	162.9384002685547	212.9335479736328	1494.273803710938	154.5124816894531	192.8868865966797	1199.644287109375	162.1405334472656	288.8363952636719	1197.718139648438	149.4131927490234	217.9220428466797	962.3540649414062	316.386962890625	178.8169860839844	943.8824462890625	243.7352905273438	178.8255920410156	1127.818725585938	190.4975280761719	237.2535095214844	767.780517578125	342.3524475097656	214.0146789550781	854.15673828125	347.6264343261719	178.8451385498047	844.9229736328125	283.8351745605469	376.1901550292969	1762.602905273438	139.3605194091797	531.6455078125	1828.204833984375	282.8046875	404.1137084960938	1833.00634765625	302.8005981445312	509.6185913085938	1763.191162109375	112.4062652587891	649.6124267578125	1051.338012695312	240.4728546142578	281.3639221191406	1005.150024414062	260.5722045898438	328.5387878417969	1085.342651367188	339.4613647460938	592.9561157226562	1105.014892578125	333.529296875	635.1599731445312	548.0633544921875	350.3513488769531	658.9113159179688	687.7806396484375	295.6969604492188	632.9545288085938	31.45644760131836	345.3490905761719	662.5938110351562	288.9739685058594	307.4837951660156	567.8681640625	41.50345230102539	572.5380249023438	537.7210083007812	46.34969329833984	492.3881530761719	655.534912109375	33.56861114501953	469.863525390625	573.8265380859375	34.20817565917969	274.5511474609375	327.7698974609375	508.5597229003906	288.0624389648438	300.6726379394531	790.750732421875	292.6680908203125	274.7117309570312	157.6756286621094	-116.3453750610352	300.5713500976562	406.5162963867188	194.3425903320312	383.4026489257812	35.67163467407227	18.65260696411133	413.7781372070312	62.52246856689453	-38.97399520874023	295.92138671875	47.22166442871094	-45.00540161132812	306.5037841796875	216.4543304443359	-150.7860412597656	
411	4.1	395.3041381835938	1104.275512695312	136.4945526123047	529.5289916992188	1117.84521484375	137.5270690917969	461.9595947265625	1143.500732421875	127.2013320922852	459.3082885742188	1354.190795898438	336.6797790527344	446.9216613769531	1290.31298828125	90.91993713378906	458.0159606933594	1584.417236328125	99.72299957275391	462.5177001953125	1486.448974609375	290.7527160644531	369.3186950683594	1396.911010742188	61.55544281005859	559.1764526367188	1564.767700195312	87.86383819580078	632.9534912109375	1557.362915039062	170.1511383056641	706.547119140625	1429.146606445312	143.7441711425781	741.5503540039062	1213.288696289062	148.1854858398438	675.2711181640625	1197.858520507812	91.74118804931641	733.6913452148438	948.9959106445312	242.0270080566406	747.1529541015625	928.7929077148438	156.0575103759766	756.3021850585938	1097.697998046875	158.360595703125	724.6631469726562	755.15869140625	247.0628204345703	756.4503173828125	852.8507080078125	180.3802185058594	751.237060546875	860.142822265625	249.3565521240234	281.9547119140625	1569.135131835938	167.5809478759766	216.60205078125	1494.94873046875	158.2029266357422	196.062255859375	1200.547607421875	164.0646514892578	292.1405334472656	1198.59765625	152.2455139160156	219.3128356933594	961.819580078125	316.2085571289062	180.6114959716797	944.1615600585938	243.0136566162109	181.4483795166016	1128.567138671875	191.5789489746094	237.8525085449219	766.946044921875	340.0944519042969	214.8658752441406	853.255859375	346.2636108398438	179.8682708740234	844.779052734375	281.9909057617188	379.8442077636719	1763.400634765625	145.5179138183594	534.33935546875	1828.970825195312	289.9641723632812	406.6854553222656	1833.941528320312	309.0361633300781	513.421630859375	1763.80126953125	119.4565811157227	652.3766479492188	1051.832885742188	247.4543151855469	284.0584411621094	1005.716979980469	266.3836975097656	330.9117126464844	1086.104125976562	345.0357055664062	595.3635864257812	1105.7880859375	340.5226440429688	636.5348510742188	547.898193359375	353.8467407226562	660.738525390625	688.00146484375	300.796630859375	633.0130004882812	31.53867530822754	345.4815979003906	663.5122680664062	289.0109252929688	309.43115234375	567.329833984375	40.87296676635742	572.9848022460938	537.5316772460938	46.02352905273438	492.5017700195312	655.6002807617188	33.51456832885742	469.9931335449219	574.0111694335938	34.29587554931641	274.6305541992188	331.0922546386719	509.5391845703125	299.7597351074219	303.9784240722656	791.8135986328125	300.6551208496094	278.2348327636719	161.3650054931641	-106.6649398803711	303.977783203125	407.8711242675781	205.6755676269531	383.0578918457031	35.19997024536133	28.2912769317627	415.0198364257812	63.69096374511719	-28.52748107910156	296.9375	49.81401443481445	-36.40253829956055	310.4550476074219	220.1698608398438	-140.3889617919922	
412	4.11	398.4796447753906	1104.564208984375	142.4225921630859	532.7677001953125	1118.439819335938	144.0715637207031	465.1571350097656	1144.102416992188	133.6239013671875	461.155029296875	1354.857299804688	342.7794799804688	451.2856750488281	1291.180908203125	96.50395965576172	462.0443115234375	1585.265869140625	106.2105255126953	464.6565551757812	1487.167724609375	297.1313781738281	373.9573059082031	1397.7255859375	66.84080505371094	563.3981323242188	1565.7080078125	95.4166259765625	636.159423828125	1558.2978515625	178.5380249023438	710.50048828125	1430.288452148438	153.624755859375	746.458984375	1214.573974609375	160.1504058837891	681.2667846679688	1198.50732421875	102.5894546508789	738.1174926757812	950.9425048828125	255.6597900390625	753.22216796875	930.215576171875	170.0698089599609	761.6002197265625	1099.265380859375	171.2308502197266	730.03857421875	757.1398315429688	261.9022216796875	762.4725341796875	854.4833984375	195.1115417480469	755.9638061523438	862.2367553710938	263.9356079101562	285.3160705566406	1569.765869140625	172.1123352050781	220.1838684082031	1495.573364257812	161.7968139648438	199.2352905273438	1201.393310546875	165.9160308837891	295.4664611816406	1199.43603515625	155.0398864746094	220.7031402587891	961.3822631835938	316.1103820800781	182.5376739501953	944.448486328125	242.4302215576172	184.1004791259766	1129.28125	192.6363830566406	238.4484558105469	766.2684936523438	338.159423828125	215.7202301025391	852.5191650390625	345.1194763183594	180.9812469482422	844.7215576171875	280.3575744628906	383.3651428222656	1764.2021484375	151.5770874023438	536.9375	1829.643798828125	297.0139465332031	409.1674499511719	1834.801391601562	315.1891479492188	517.0847778320312	1764.396118164062	126.3889846801758	654.525634765625	1051.782348632812	253.5624694824219	286.7021789550781	1006.267150878906	272.2256164550781	333.2634582519531	1086.863525390625	350.5333251953125	597.7454223632812	1106.509033203125	347.2729187011719	637.71728515625	547.7836303710938	357.3017578125	662.2890014648438	688.2221069335938	305.873291015625	633.0432739257812	31.64626121520996	345.59423828125	664.324462890625	289.0673522949219	311.3749694824219	566.81298828125	40.32232284545898	573.4125366210938	537.3737182617188	45.71271514892578	492.6125793457031	655.642333984375	33.47511291503906	470.0999755859375	574.142333984375	34.39395904541016	274.7136840820312	334.3554992675781	510.5772399902344	311.2947998046875	307.2163696289062	792.9370727539062	308.605224609375	281.87939453125	164.6632232666016	-96.76503753662109	307.3822021484375	409.2634887695312	216.8372344970703	382.5831604003906	34.76694107055664	39.06213760375977	416.0523071289062	64.78711700439453	-17.17994499206543	297.6665344238281	52.78659820556641	-26.61246871948242	314.6385803222656	223.1391906738281	-130.1873474121094	
